<svg width="64" height="64" viewBox="0 0 64 64" fill="none" xmlns="http://www.w3.org/2000/svg">
<rect width="64" height="64" rx="9.14286" fill="#69C34A"/>
<path d="M47.1043 22.0784C46.7029 21.9558 46.2709 22.0912 46.009 22.4106L45.5799 22.9263V11.8093C45.5799 11.2414 45.1195 10.7809 44.5515 10.7809H29.7373C29.2902 7.78773 26.7022 5.48566 23.587 5.48566C23.5841 5.48566 23.5812 5.48566 23.5781 5.48566C20.1508 5.49114 17.3664 8.28428 17.3712 11.7125L17.3905 23.5226L16.4567 22.4027C16.2612 22.1686 15.9619 22.033 15.6568 22.033C15.089 22.033 14.6284 22.505 14.6284 23.0729V57.0924C14.6284 57.6604 15.089 58.1208 15.6568 58.1208H46.8042C47.372 58.1208 47.8326 57.6604 47.8326 57.0924L47.8336 23.0614C47.8336 22.6089 47.5373 22.2102 47.1043 22.0784ZM29.8681 26.03C29.8453 25.8051 29.8299 25.5791 29.8292 25.353V25.3004C29.845 21.5388 32.9098 18.4833 36.6756 18.4833C40.4512 18.4833 43.5229 21.5544 43.5229 25.3295C43.5229 25.3527 43.521 25.3766 43.5208 25.4001L41.627 27.6756L37.2316 22.4029C37.0362 22.1684 36.7469 22.033 36.4418 22.033C36.1367 22.033 35.8474 22.1686 35.652 22.4027L31.2477 27.6846L29.8681 26.03ZM43.5231 19.6454C41.8884 17.6801 39.4261 16.4265 36.6758 16.4265C33.9209 16.4265 31.4543 17.6844 29.8198 19.6555L29.8083 12.8375H43.5232L43.5231 19.6454ZM19.428 11.7094C19.4247 9.41535 21.288 7.54606 23.5812 7.54246C23.5832 7.54246 23.5849 7.54246 23.587 7.54246C25.3711 7.54246 26.8972 8.67096 27.4879 10.2521L22.9974 14.7565C22.6966 15.0582 22.6973 15.5465 22.9991 15.8473C23.1496 15.9973 23.3465 16.0724 23.5436 16.0724C23.7414 16.0724 23.9392 15.9966 24.0899 15.8456L27.7506 12.1737L27.756 15.4324L23.0085 20.1944C22.7077 20.496 22.7084 20.9843 23.0102 21.2852C23.1607 21.4353 23.3577 21.5102 23.5548 21.5102C23.7526 21.5102 23.9504 21.4346 24.101 21.2834L27.7594 17.6136L27.7695 23.5127L26.8443 22.4029C26.6489 22.1686 26.3596 22.033 26.0545 22.033C25.7494 22.033 25.4599 22.1686 25.2647 22.4029L20.8614 27.6847L19.4516 25.9942L19.428 11.7094ZM45.7758 56.0641H16.6852V25.8885L20.0712 29.9491C20.2668 30.1834 20.556 30.3188 20.861 30.3188C21.1661 30.3188 21.4556 30.1834 21.6509 29.9489L26.0543 24.6672L28.0746 27.0907C28.0811 27.0987 28.0876 27.1064 28.0943 27.1143L30.4576 29.9491C30.653 30.1834 30.9423 30.319 31.2474 30.319C31.5525 30.319 31.8418 30.1836 32.0372 29.9493L36.4413 24.6674L40.8377 29.941C41.0331 30.1755 41.3225 30.3109 41.6275 30.3109H41.6281C41.9333 30.3107 42.2228 30.175 42.418 29.9403L45.3411 26.428C45.3432 26.4256 45.3452 26.4232 45.3473 26.4206L45.7758 25.9058V56.0641Z" fill="white" stroke="white" strokeWidth="0.365714"/>
</svg>
